<?xml version="1.0" standalone="no"?>
<!DOCTYPE svg PUBLIC "-//W3C//DTD SVG 20010904//EN"
 "http://www.w3.org/TR/2001/REC-SVG-20010904/DTD/svg10.dtd">
<svg version="1.0" xmlns="http://www.w3.org/2000/svg"
 width="130.000000pt" height="38.000000pt" viewBox="0 0 130.000000 38.000000"
 preserveAspectRatio="xMidYMid meet">
<metadata>
Created by potrace 1.16, written by Peter Selinger 2001-2019
</metadata>
<g transform="translate(0.000000,38.000000) scale(0.100000,-0.100000)"
fill="#000000" stroke="none">
<path d="M140 230 l-132 -140 34 0 c25 0 42 8 63 30 27 28 33 30 107 30 l78 0
0 -30 c0 -23 4 -30 20 -30 15 0 20 7 20 29 l0 29 29 -29 c16 -16 37 -29 46
-29 20 0 57 19 67 34 4 6 8 -3 8 -20 0 -47 -29 -68 -86 -60 -40 5 -45 4 -42
-12 2 -13 15 -18 59 -20 75 -4 109 22 116 89 l5 45 29 -28 c25 -26 34 -29 81
-26 40 2 54 7 56 20 3 14 -3 15 -38 11 -30 -4 -45 -1 -60 12 -37 34 -25 45 45
45 l65 0 0 -45 c0 -41 2 -45 25 -45 24 0 25 3 25 61 0 87 26 123 71 99 16 -9
19 -22 19 -85 0 -73 1 -75 25 -75 21 0 25 5 25 29 l0 29 30 -29 c26 -26 36
-30 77 -27 37 2 49 7 51 21 3 16 -1 18 -25 13 -22 -5 -36 -1 -56 14 -61 48 -8
143 65 115 9 -4 12 -19 9 -51 -6 -81 34 -118 120 -112 31 2 45 8 47 19 3 14
-4 16 -41 12 -37 -4 -48 -2 -66 18 -11 12 -21 26 -21 31 0 4 32 8 70 8 l70 0
0 33 c0 65 -70 100 -133 68 -27 -14 -37 -15 -37 -6 0 34 -108 19 -138 -20
l-19 -24 -11 25 c-21 44 -73 51 -114 16 -16 -14 -18 -13 -18 1 0 11 -8 17 -25
17 -19 0 -25 -5 -25 -22 0 -20 -1 -20 -13 -5 -33 44 -119 41 -152 -6 -15 -21
-15 -21 -15 6 0 22 -4 27 -25 27 -17 0 -25 -6 -25 -17 0 -12 -3 -14 -8 -6 -4
6 -20 16 -35 22 -33 13 -69 1 -91 -31 -15 -22 -16 -20 -16 45 l0 67 -29 0
c-24 0 -50 -23 -161 -140z m150 25 l0 -55 -56 0 -55 0 48 55 c26 30 51 55 56
55 4 0 7 -25 7 -55z m362 -2 c31 -28 22 -43 -27 -43 -49 0 -56 11 -28 42 20
22 31 23 55 1z m520 0 c32 -29 22 -43 -32 -43 -43 0 -49 2 -43 18 7 19 32 42
47 42 5 0 18 -7 28 -17z m-708 -15 c20 -28 20 -58 0 -86 -30 -44 -84 -17 -84
43 0 60 54 87 84 43z"/>
<path d="M1211 348 c0 -22 1 -22 9 -3 6 13 9 15 9 5 1 -13 3 -13 10 -1 7 11
10 10 14 -5 4 -16 5 -16 6 4 1 17 -4 22 -24 22 -19 0 -25 -5 -24 -22z"/>
<path d="M1270 352 c0 -10 7 -19 15 -19 12 0 12 3 2 16 -9 12 -9 13 1 7 6 -4
12 -2 12 3 0 6 -7 11 -15 11 -8 0 -15 -8 -15 -18z"/>
</g>
</svg>
